<?xml version="1.0" encoding="UTF-8" standalone="no"?>
<svg
   xmlns:dc="http://purl.org/dc/elements/1.1/"
   xmlns:cc="http://creativecommons.org/ns#"
   xmlns:rdf="http://www.w3.org/1999/02/22-rdf-syntax-ns#"
   xmlns:svg="http://www.w3.org/2000/svg"
   xmlns="http://www.w3.org/2000/svg"
   xmlns:sodipodi="http://sodipodi.sourceforge.net/DTD/sodipodi-0.dtd"
   xmlns:inkscape="http://www.inkscape.org/namespaces/inkscape"
   width="287"
   height="300"
   viewBox="0 0 1149 1204"
   version="1.0"
   id="svg2"
   sodipodi:version="0.32"
   inkscape:version="0.46"
   sodipodi:docname="Cognizant_Logo.svg"
   inkscape:output_extension="org.inkscape.output.svg.inkscape">
  <metadata
     id="metadata64">
    <rdf:RDF>
      <cc:Work
         rdf:about="">
        <dc:format>image/svg+xml</dc:format>
        <dc:type
           rdf:resource="http://purl.org/dc/dcmitype/StillImage" />
      </cc:Work>
    </rdf:RDF>
  </metadata>
  <defs
     id="defs62">
    <inkscape:perspective
       sodipodi:type="inkscape:persp3d"
       inkscape:vp_x="0 : 752.5 : 1"
       inkscape:vp_y="0 : 1000 : 0"
       inkscape:vp_z="1436.25 : 752.5 : 1"
       inkscape:persp3d-origin="718.125 : 501.66667 : 1"
       id="perspective66" />
  </defs>
  <sodipodi:namedview
     inkscape:window-height="669"
     inkscape:window-width="640"
     inkscape:pageshadow="2"
     inkscape:pageopacity="0.0"
     guidetolerance="10.0"
     gridtolerance="10.0"
     objecttolerance="10.0"
     borderopacity="1.0"
     bordercolor="#666666"
     pagecolor="#ffffff"
     id="base"
     showgrid="false"
     inkscape:zoom="0.30697674"
     inkscape:cx="718.125"
     inkscape:cy="752.5"
     inkscape:window-x="161"
     inkscape:window-y="95"
     inkscape:current-layer="svg2" />
  <g
     id="#ffffffff" />
  <g
     id="#110e0eff">
    <path
       d="M 547.49,1.75 C 558.61,0.71 569.78,0.59 580.95,0.77 C 590.31,0.18 599.63,1.26 608.95,1.88 C 676.52,7.21 742.52,30.96 797.99,69.91 C 853.77,108.76 899.01,162.63 927.45,224.38 C 960.2,294.7 970.55,375.11 957.29,451.5 C 948.52,503.25 928.77,553.06 899.97,596.93 C 872.91,638.19 837.89,674.21 797.35,702.35 C 747.76,736.96 689.85,759.59 629.91,767.63 C 553.11,778.34 473.12,765.18 403.95,730.09 C 337.9,696.93 281.83,644.26 244.56,580.44 C 206.94,516.71 188.71,441.86 192.24,367.97 C 194.02,330.99 200.92,294.22 213.19,259.27 C 237.49,188.96 282.91,126.21 341.85,80.86 C 400.7,35.16 473.16,7.23 547.49,1.75 M 529.02,6.94 C 525.43,8.62 521.32,8.2 517.6,9.45 C 512.13,11.32 506.39,12.2 500.88,13.93 C 495.8,14.91 491.52,18.21 486.29,18.64 C 486.66,18.81 487.41,19.14 487.78,19.31 C 481.95,19.31 477.83,23.87 472.28,24.7 C 472.69,24.85 473.52,25.15 473.93,25.29 C 472.03,25.72 470.14,26.2 468.25,26.66 C 468.72,26.89 469.2,27.11 469.69,27.33 C 464.57,28.5 460.49,31.98 455.9,34.31 C 448.84,38.84 442.07,43.8 435.55,49.07 C 435.49,49.63 435.38,50.76 435.32,51.32 C 434.73,51.35 433.55,51.41 432.96,51.44 C 428.79,56.26 423.7,60.17 419.61,65.06 C 419.53,65.54 419.37,66.5 419.29,66.98 C 415.3,69 413.29,73.35 410.95,76.95 C 405.83,82.62 402.54,89.64 398.99,96.34 C 396.08,101.66 394.45,107.51 392.12,113.08 C 389.67,119.18 387.89,125.57 387.19,132.12 C 386.94,130.82 386.7,129.52 386.46,128.23 C 386.59,131.17 386.55,134.16 385.64,137 C 384.1,141.73 384.42,146.77 383.64,151.63 C 389.02,153.22 394.68,151.72 400.13,152.8 C 394.71,152.42 389.28,152.74 383.86,152.34 L 383.87,152.16 C 362.73,151.82 341.45,152.15 320.55,155.69 C 297.42,159.66 273.52,166.71 255.87,182.93 C 243.17,194.3 235.86,211.05 235.5,228.03 C 234.74,252.68 244.13,276.23 255.44,297.67 C 267.73,320.19 282.84,341.06 299.16,360.82 C 324.47,391.22 352.35,419.53 382.6,445.04 C 382.75,497.36 382.59,549.67 382.68,601.98 C 382.68,604.06 382.96,606.12 383.3,608.18 C 383.5,618.79 383.78,629.6 386.87,639.83 C 388.52,647.25 390.7,654.52 392.7,661.84 C 392.9,661.29 393.1,660.75 393.32,660.23 C 394.16,665.41 396.02,670.49 399.06,674.81 C 399.61,676.25 400.24,677.67 401.06,679 C 402.84,684.12 406.17,688.41 408.95,693 C 419.77,708.56 433.6,721.84 448.79,733.1 C 453.03,735.33 457.05,737.98 460.85,740.91 C 468.32,744.52 475.78,748.18 483.53,751.19 C 486.68,753 490.09,754.27 493.73,754.65 C 493.24,754.88 492.76,755.12 492.29,755.38 C 499.76,756.31 506.54,759.87 513.89,761.35 C 524.74,764.17 535.9,765.28 546.91,767.27 C 565.88,768.7 584.96,768.86 603.94,767.46 C 609.27,766.62 614.62,765.94 620,765.54 C 634.7,763.09 649.04,758.91 663.34,754.74 C 670.84,751.26 678.77,748.64 685.89,744.38 C 692.01,741.97 697.43,738.21 703.19,735.09 C 705.73,732.96 708.35,730.93 711.09,729.07 C 715.44,726.02 719.13,722.17 723.27,718.87 C 732.99,711.35 739.96,701.08 747.35,691.43 C 758.47,675.05 765.79,656.26 769.79,636.92 C 770.69,631.3 772.17,625.75 772.16,620.03 C 772.67,615.39 772.51,610.7 773.32,606.1 C 786.89,607.01 800.53,606.12 814.1,605.37 C 832.32,603.82 850.6,601.35 868.09,595.83 C 881.98,591.51 895.57,585.23 906.41,575.36 C 915.27,567.5 921.54,556.77 923.62,545.08 C 926.57,528.06 922.46,510.71 916.06,494.95 C 905.98,470.36 890.63,448.39 874.41,427.51 C 870.96,426.94 867.45,427.35 863.98,427.27 C 806.34,427.37 748.69,427.36 691.04,427.52 C 700.22,440.5 710.21,454.16 711.95,470.45 L 711.91,471.3 C 707.32,470.3 702.64,470.96 698.03,471.26 C 683.35,471.11 668.67,471.15 653.99,471.3 C 649.66,471.02 645.32,470.72 641,471.22 C 629.89,471.34 618.79,471.23 607.69,471.3 C 586.44,459.86 566.98,445.46 548.37,430.17 C 548.62,399.11 548.4,368.04 548.48,336.98 C 548.32,321.31 548.81,305.62 548.22,289.96 L 548.53,290.32 C 565.5,300.46 581.2,312.74 594.98,326.92 C 596.44,328.77 598.98,328.21 601.03,328.35 C 660.76,328 720.5,328.44 780.22,327.83 C 757.3,305.19 732.69,284.22 706.43,265.55 C 710.45,264.03 714.82,264.78 719.02,264.66 C 737.17,264.59 755.32,264.81 773.47,264.55 C 773.62,230.69 773.67,196.83 773.44,162.97 C 771.9,152.95 772.49,142.51 768.93,132.88 C 768.43,124.97 764.31,117.94 763.38,110.12 C 763.22,110.54 762.9,111.36 762.74,111.78 C 761.23,104.72 757.6,98.37 754.32,92.03 C 752.4,87.28 748.79,83.49 746.96,78.71 C 743.47,74.95 740.38,70.85 737.19,66.85 C 726.35,53.96 712.97,43.51 699.14,34.04 C 693.47,31.31 687.83,28.53 682.37,25.39 C 672.93,20.77 663.07,17.03 652.99,14.09 C 646.93,12.25 640.68,11.11 634.73,8.92 C 624.73,7.88 615.06,4.49 604.97,4.44 C 586.66,3.04 568.22,3.12 549.9,4.42 C 542.98,5.53 535.99,6.19 529.02,6.94 z"
       id="path6"
       style="opacity:1;fill:#110e0e" />
    <path
       d="M 566.3,128.22 C 572.85,125.73 580.26,125.27 587.01,127.2 C 600.32,132.57 606.47,147.46 607.45,160.92 C 607.81,176.22 607.35,191.53 607.7,206.84 C 602.12,205.26 597.08,202.38 591.75,200.19 C 577.5,194.12 563.15,188.2 548.39,183.47 C 548.74,174.31 547.96,165.1 548.94,155.97 C 550.84,150.16 551.51,143.8 555.02,138.64 C 556.94,135.43 559.24,132.3 562.8,130.78 C 563.92,129.89 564.93,128.76 566.3,128.22 z"
       id="path8"
       style="opacity:1;fill:#110e0e" />
    <path
       d="M 548.43,557.03 C 548.37,555.09 548.59,553.14 549.55,551.43 C 568.43,560.4 587.95,568 607.69,574.9 C 607.48,582.29 607.6,589.68 607.58,597.08 C 607.47,605.98 608.25,615.19 604.99,623.68 C 602.77,631.69 597.78,639.24 589.99,642.7 C 582.14,647.47 572.51,646.04 564.24,643.29 C 564.75,643.07 565.27,642.86 565.8,642.66 C 564.19,642.17 562.6,641.69 561.02,641.22 C 558.18,637.85 555.15,634.53 553.34,630.47 C 549.92,623.15 549.15,614.96 548.51,607.01 C 548.42,590.35 548.59,573.69 548.43,557.03 z"
       id="path10"
       style="opacity:1;fill:#110e0e" />
    <path
       d="M 908.47,603.22 C 916.57,603.14 924.68,603.18 932.79,603.19 C 932.75,604.34 932.72,605.5 932.7,606.66 C 929.34,606.63 925.97,606.65 922.62,606.64 C 922.67,615.39 922.59,624.14 922.66,632.89 C 921.3,632.9 919.96,632.93 918.62,632.95 C 918.62,624.17 918.7,615.39 918.57,606.61 C 915.22,606.64 911.86,606.65 908.52,606.62 C 908.5,605.48 908.48,604.35 908.47,603.22 z"
       id="path12"
       style="opacity:1;fill:#110e0e" />
    <path
       d="M 936.41,603.18 C 938.35,603.18 940.3,603.19 942.27,603.23 C 945.03,611.62 947.78,620.02 950.79,628.33 C 953.74,620 956.5,611.61 959.28,603.22 C 961.2,603.19 963.14,603.17 965.08,603.16 C 965.13,613.06 965.07,622.97 965.11,632.88 C 963.79,632.9 962.48,632.92 961.18,632.95 C 961.13,625.04 961.44,617.13 961.06,609.24 C 957.62,616.86 955.57,625.05 952.77,632.92 C 951.38,632.89 950.01,632.86 948.65,632.83 C 945.93,624.76 943.54,616.54 940.33,608.64 C 940.25,616.74 940.35,624.85 940.34,632.95 C 939.01,632.92 937.69,632.89 936.39,632.86 C 936.47,622.96 936.44,613.07 936.41,603.18 z"
       id="path14"
       style="opacity:1;fill:#110e0e" />
    <path
       d="M 29.38,920.28 C 44.44,911.08 62.77,909.67 80,910.26 C 95.6,910.95 112.5,915.48 122.54,928.29 C 133.53,942.11 134.52,960.75 133.77,977.67 C 123.74,977.95 113.7,977.69 103.67,977.81 C 103.45,968.01 103.76,957.67 99.47,948.61 C 95.87,940.89 87.3,937.44 79.48,935.78 C 66.52,933.2 51.93,936.05 42.16,945.33 C 37.49,949.57 35.08,955.67 33.47,961.63 C 31.26,970.93 30.76,980.54 30.44,990.07 C 30.07,1013.39 30.34,1036.73 30.27,1060.06 C 30.46,1075.18 30.99,1090.85 37.13,1104.92 C 40.67,1113.25 47.93,1120.02 56.88,1122.02 C 66.24,1123.92 76.45,1124.45 85.39,1120.49 C 92.52,1117.4 98.13,1111.4 101.42,1104.43 C 105.73,1095.53 106.81,1085.51 107.09,1075.76 C 117.13,1075.74 127.17,1075.73 137.21,1075.77 C 137.32,1091.21 135.54,1107.29 127.87,1120.98 C 121.71,1132.25 110.89,1140.68 98.66,1144.45 C 88.13,1147.9 76.93,1148.1 65.96,1147.75 C 53.16,1147.58 39.79,1145.42 29.01,1138.06 C 17.41,1130.56 10.37,1117.82 6.42,1104.9 C 1.73,1089.07 0.13,1072.41 0.84,1055.95 C 0.85,1035.3 0.99,1014.65 0.8,994.01 C 0.09,981.18 1.59,968.26 4.81,955.83 C 8.5,941.63 16.58,928 29.38,920.28 z"
       id="path16"
       style="opacity:1;fill:#110e0e" />
    <path
       d="M 610.39,942.66 C 610.43,933.36 610.31,924.06 610.46,914.77 C 620.17,914.92 629.88,914.68 639.59,914.9 C 639.51,924.16 639.58,933.41 639.56,942.67 C 629.83,942.7 620.11,942.73 610.39,942.66 z"
       id="path18"
       style="opacity:1;fill:#110e0e" />
    <path
       d="M 1087.12,952.77 C 1095.79,948.91 1104.4,944.92 1113.09,941.09 C 1113.12,955.2 1113.1,969.3 1113.1,983.41 C 1124.68,983.43 1136.27,983.43 1147.86,983.4 C 1147.94,989.96 1147.88,996.53 1147.9,1003.09 C 1136.3,1003.09 1124.7,1003.11 1113.1,1003.09 C 1113.12,1036.41 1113.07,1069.74 1113.12,1103.07 C 1113.11,1109.24 1114.31,1116.5 1120.06,1120 C 1128.49,1125.2 1138.83,1123.73 1148.16,1122.56 C 1148.03,1129.23 1148.47,1135.91 1148.05,1142.58 C 1135.75,1143.82 1123.3,1146.4 1110.98,1144.06 C 1103.12,1142.77 1095.07,1139.1 1090.87,1132.02 C 1087,1125.74 1086.98,1118.12 1087.1,1111 C 1087.09,1075.03 1087.12,1039.06 1087.08,1003.09 C 1078.34,1003.11 1069.6,1003.08 1060.86,1003.09 C 1060.89,996.52 1060.69,989.95 1060.99,983.39 C 1069.68,983.45 1078.38,983.41 1087.09,983.42 C 1087.13,973.2 1087.07,962.99 1087.12,952.77 z"
       id="path20"
       style="opacity:1;fill:#110e0e" />
    <path
       d="M 524.04,980.86 C 536.39,979.62 549.98,979.95 560.61,987.16 C 569.61,993.27 573.77,1004.1 575.34,1014.47 C 576.99,1025.89 576.49,1037.49 576.59,1049 C 576.6,1080.34 576.56,1111.68 576.61,1143.02 C 567.94,1143.28 559.26,1143.07 550.59,1143.13 C 550.57,1113.74 550.58,1084.35 550.58,1054.97 C 550.45,1045.65 550.87,1036.32 550.3,1027.03 C 549.74,1019.06 546.85,1010.59 539.93,1005.97 C 532.3,1001.1 522.61,1000.78 513.95,1002.44 C 505.86,1004 498.94,1009.71 495.44,1017.11 C 489.93,1028.51 489.95,1041.54 489.91,1053.94 C 489.93,1083.67 489.9,1113.4 489.93,1143.14 C 481.26,1143.13 472.59,1143.15 463.93,1143.13 C 463.89,1113.76 463.92,1084.39 463.91,1055.02 C 463.82,1031.16 464.45,1007.26 462.35,983.47 C 471.5,983.34 480.66,983.49 489.82,983.39 C 490.09,990.4 489.71,997.43 490.04,1004.45 C 493.16,1001.99 494.4,998 497.11,995.16 C 503.55,986.8 513.62,981.82 524.04,980.86 z"
       id="path22"
       style="opacity:1;fill:#110e0e" />
    <path
       d="M 976.67,987.66 C 985.98,981.01 997.93,980 1009.03,980.39 C 1019.11,980.72 1029.8,983.56 1036.9,991.14 C 1044.16,998.87 1046.68,1009.69 1047.67,1019.94 C 1048.55,1031.95 1048.14,1044 1048.23,1056.03 C 1048.22,1085.07 1048.26,1114.1 1048.21,1143.13 C 1039.55,1143.13 1030.89,1143.16 1022.24,1143.11 C 1022.21,1106.4 1022.24,1069.69 1022.22,1032.98 C 1022.1,1025.23 1021.28,1016.89 1016.4,1010.53 C 1012.33,1005.08 1005.56,1002.37 998.95,1001.79 C 990.3,1000.89 980.83,1002.24 974,1008.04 C 967.33,1013.76 964.27,1022.49 962.84,1030.92 C 961.01,1042.85 961.71,1054.96 961.57,1066.99 C 961.53,1092.38 961.66,1117.77 961.51,1143.16 C 952.87,1143.1 944.22,1143.16 935.59,1143.14 C 935.54,1115.76 935.58,1088.39 935.57,1061.01 C 935.46,1035.13 936.15,1009.21 934.07,983.38 C 943.24,983.5 952.41,983.31 961.59,983.49 C 961.76,990.33 961.18,997.22 961.82,1004.02 L 962.65,1003.94 C 966.57,997.95 970.61,991.74 976.67,987.66 z"
       id="path24"
       style="opacity:1;fill:#110e0e" />
    <path
       d="M 206.46,981.69 C 220.79,979.44 235.89,979.66 249.72,984.41 C 261.01,988.21 270.23,996.99 275.13,1007.78 C 281.5,1021.58 282.87,1037.03 283.37,1052.03 C 283.86,1071.47 283.84,1091.33 278.21,1110.12 C 274.74,1121.77 268.01,1133.09 257.17,1139.22 C 245.03,1146.08 230.6,1146.57 217,1146.17 C 204.51,1145.73 191.25,1142.98 181.77,1134.26 C 171.1,1124.51 166.61,1110.02 164.33,1096.17 C 161.59,1079.25 161.95,1062.03 162.65,1044.96 C 163.76,1029.01 166.07,1012.06 175.96,998.92 C 183.12,989.16 194.7,983.53 206.46,981.69 M 212.46,1002.68 C 205.35,1004.32 199.31,1009.33 196.09,1015.84 C 190.49,1026.97 189.72,1039.75 189.41,1051.99 C 189.51,1065.87 189.48,1079.83 191.7,1093.57 C 193.31,1102.67 195.77,1112.51 202.95,1118.9 C 210.36,1125.21 220.86,1125.7 230.08,1124.49 C 237.87,1123.51 244.97,1118.61 248.49,1111.57 C 254.38,1100.02 255.13,1086.73 255.93,1074.03 C 256.3,1057.63 257.4,1040.88 253.13,1024.86 C 250.96,1016.7 246.49,1008.42 238.59,1004.62 C 230.5,1000.86 221.05,1000.84 212.46,1002.68 z"
       id="path26"
       style="opacity:1;fill:#110e0e" />
    <path
       d="M 336.89,987.78 C 347.57,980.23 361.65,978.69 374.15,981.84 C 382,983.83 389.21,988.43 394.09,994.93 C 396.19,997.58 397.65,1000.66 399.64,1003.39 C 399.72,996.75 399.67,990.11 399.67,983.48 C 408.32,983.36 416.98,983.42 425.64,983.44 C 425.73,1041.64 425.67,1099.83 425.67,1158.03 C 425.72,1167.84 424.25,1178.2 418.35,1186.35 C 413.05,1193.79 404.54,1198.21 395.87,1200.48 C 386.78,1202.77 377.36,1203.65 368.01,1203.3 C 355.09,1203.85 341.53,1200.81 331.22,1192.71 C 323.1,1186.4 318.48,1176.24 318.3,1166.03 C 318.46,1164.37 317.72,1162.21 318.85,1160.88 C 328.37,1160.64 337.91,1160.91 347.44,1160.75 C 347.91,1166.67 349.46,1172.89 353.85,1177.17 C 359.8,1183.23 368.98,1184.56 377.08,1183.51 C 384.86,1182.64 392.46,1178.35 396.18,1171.3 C 400.37,1163.92 399.61,1155.14 399.68,1146.99 C 399.54,1138.86 399.96,1130.72 399.44,1122.61 C 394.9,1129.87 388.64,1136.25 380.59,1139.52 C 368.93,1144.65 355.3,1143.95 343.51,1139.62 C 332.71,1135.51 324.54,1126.27 320.19,1115.73 C 314.1,1101.33 312.53,1085.49 312.04,1070 C 311.38,1052.28 311.9,1034.2 317.17,1017.13 C 320.71,1005.75 326.93,994.71 336.89,987.78 M 362.45,1002.62 C 354.13,1004.28 347.72,1010.94 344.58,1018.59 C 339.63,1030.37 339.25,1043.42 339.04,1056.02 C 339.08,1071.17 339.38,1086.64 343.88,1101.24 C 346.38,1109.3 351.5,1117.5 359.99,1120.1 C 370.21,1123.21 382.95,1121.67 390.15,1113.12 C 397.21,1104.82 398.84,1093.57 399.79,1083.1 C 400.57,1070.76 400.37,1058.38 400.15,1046.04 C 399.48,1034.04 398.59,1020.96 390.89,1011.12 C 384.29,1002.71 372.47,1000.49 362.45,1002.62 z"
       id="path28"
       style="opacity:1;fill:#110e0e" />
    <path
       d="M 799.13,995.06 C 805.6,987.36 815.38,983.36 825.08,981.67 C 835.67,979.91 846.54,979.83 857.16,981.35 C 867.76,982.94 878.58,987.27 885.35,995.92 C 892.27,1004.66 894.33,1016.14 894.45,1027.03 C 894.55,1053.38 894.42,1079.73 894.51,1106.08 C 894.57,1118.5 895.85,1130.87 897.63,1143.14 C 888.13,1143.12 878.63,1143.16 869.14,1143.12 C 869.01,1135.29 869.33,1127.45 868.94,1119.64 C 865.48,1126.3 861.81,1133.12 855.85,1137.91 C 847.64,1144.76 836.45,1146.51 826.07,1146.23 C 815.68,1146.02 804.72,1143.15 797.24,1135.54 C 789.26,1127.52 786.25,1116.02 785.18,1105.07 C 784.32,1094.95 784.26,1084.43 787.82,1074.78 C 790.62,1067.04 796.01,1060.31 802.86,1055.75 C 812.04,1049.57 823.05,1046.85 833.89,1045.37 C 845.37,1043.76 856.99,1044.19 868.54,1043.88 C 868.59,1033.29 869.32,1022.15 864.88,1012.24 C 861.9,1005.63 855.2,1001.37 848.14,1000.45 C 839.42,999.2 829.31,1000.24 822.9,1006.93 C 817.42,1012.57 816.22,1020.86 816.53,1028.42 C 807.17,1028.33 797.82,1028.42 788.47,1028.38 C 788.95,1016.66 791.25,1004.2 799.13,995.06 M 830.05,1067.32 C 822.43,1069.7 815.47,1075.15 812.8,1082.87 C 809.73,1091.79 810.02,1101.89 813.53,1110.65 C 816.24,1117.58 822.48,1123.13 829.88,1124.48 C 837.71,1125.81 846.32,1124.65 852.81,1119.82 C 859.03,1115.33 862.78,1108.26 865.04,1101.09 C 868.71,1089.04 868.97,1076.3 868.48,1063.82 C 855.64,1064.21 842.44,1063.34 830.05,1067.32 z"
       id="path30"
       style="opacity:1;fill:#110e0e" />
    <path
       d="M 612.04,983.4 C 620.66,983.43 629.29,983.42 637.91,983.41 C 638.14,1036.65 637.98,1089.89 637.96,1143.13 C 629.3,1143.14 620.64,1143.14 611.98,1143.13 C 612.01,1089.88 611.89,1036.64 612.04,983.4 z"
       id="path32"
       style="opacity:1;fill:#110e0e" />
    <path
       d="M 665.16,983.41 C 696.91,983.47 728.65,983.33 760.39,983.48 C 760.31,990.99 760.44,998.5 760.35,1006.01 C 760.46,1007.44 759.42,1008.56 758.81,1009.76 C 735.81,1047.12 712.85,1084.5 689.89,1121.88 C 714.11,1121.93 738.34,1121.88 762.57,1121.91 C 762.6,1128.99 762.59,1136.06 762.57,1143.14 C 728.92,1143.13 695.28,1143.14 661.63,1143.14 C 661.61,1136.09 661.64,1129.03 661.6,1121.99 C 661.64,1120.46 661.44,1118.83 662.39,1117.55 C 685.35,1079.91 708.56,1042.43 731.44,1004.74 C 709.34,1004.59 687.24,1004.7 665.15,1004.68 C 665.07,997.59 665.05,990.5 665.16,983.41 z"
       id="path34"
       style="opacity:1;fill:#110e0e" />
  </g>
  <g
     id="#007cc2ff">
    <path
       d="M 529.02,6.94 C 535.99,6.19 542.98,5.53 549.9,4.42 C 568.22,3.12 586.66,3.04 604.97,4.44 C 615.06,4.49 624.73,7.88 634.73,8.92 C 640.68,11.11 646.93,12.25 652.99,14.09 C 663.07,17.03 672.93,20.77 682.37,25.39 C 687.83,28.53 693.47,31.31 699.14,34.04 C 712.97,43.51 726.35,53.96 737.19,66.85 C 740.38,70.85 743.47,74.95 746.96,78.71 C 748.79,83.49 752.4,87.28 754.32,92.03 C 757.6,98.37 761.23,104.72 762.74,111.78 C 762.9,111.36 763.22,110.54 763.38,110.12 C 764.31,117.94 768.43,124.97 768.93,132.88 C 772.49,142.51 771.9,152.95 773.44,162.97 C 773.67,196.83 773.62,230.69 773.47,264.55 C 755.32,264.81 737.17,264.59 719.02,264.66 C 714.82,264.78 710.45,264.03 706.43,265.55 C 705.72,265.09 705.02,264.63 704.33,264.18 C 687.18,251.87 669.35,240.56 651.06,230.03 C 636.86,222.19 622.67,214.21 607.72,207.87 C 607.71,207.61 607.7,207.1 607.7,206.84 C 607.35,191.53 607.81,176.22 607.45,160.92 C 606.47,147.46 600.32,132.57 587.01,127.2 C 580.26,125.27 572.85,125.73 566.3,128.22 C 564.93,128.76 563.92,129.89 562.8,130.78 C 559.24,132.3 556.94,135.43 555.02,138.64 C 551.51,143.8 550.84,150.16 548.94,155.97 C 547.19,164.94 549,174.16 548.01,183.23 C 539.22,180.8 530.71,177.46 521.91,175.08 C 487.66,165.06 452.52,157.89 416.98,154.52 C 411.35,154.05 405.7,153.78 400.13,152.8 C 394.68,151.72 389.02,153.22 383.64,151.63 C 384.42,146.77 384.1,141.73 385.64,137 C 386.55,134.16 386.59,131.17 386.46,128.23 C 386.7,129.52 386.94,130.82 387.19,132.12 C 387.89,125.57 389.67,119.18 392.12,113.08 C 394.45,107.51 396.08,101.66 398.99,96.34 C 402.54,89.64 405.83,82.62 410.95,76.95 C 413.29,73.35 415.3,69 419.29,66.98 C 419.37,66.5 419.53,65.54 419.61,65.06 C 423.7,60.17 428.79,56.26 432.96,51.44 C 433.55,51.41 434.73,51.35 435.32,51.32 C 435.38,50.76 435.49,49.63 435.55,49.07 C 442.07,43.8 448.84,38.84 455.9,34.31 C 460.49,31.98 464.57,28.5 469.69,27.33 C 469.2,27.11 468.72,26.89 468.25,26.66 C 470.14,26.2 472.03,25.72 473.93,25.29 C 473.52,25.15 472.69,24.85 472.28,24.7 C 477.83,23.87 481.95,19.31 487.78,19.31 C 487.41,19.14 486.66,18.81 486.29,18.64 C 491.52,18.21 495.8,14.91 500.88,13.93 C 506.39,12.2 512.13,11.32 517.6,9.45 C 521.32,8.2 525.43,8.62 529.02,6.94 z"
       id="path37"
       style="opacity:1;fill:#007cc2" />
    <path
       d="M 456.62,268.72 C 467.2,266 478.28,266.58 489.04,267.73 C 510.2,270.44 529.83,279.55 548.22,289.96 C 548.81,305.62 548.32,321.31 548.48,336.98 C 548.4,368.04 548.62,399.11 548.37,430.17 C 519.27,405.47 493.38,377.15 469.81,347.18 C 459.51,333.34 449.2,319.13 443.17,302.82 C 440.86,295.55 438.69,287.3 441.95,279.97 C 444.5,273.96 450.52,270.31 456.62,268.72 z"
       id="path39"
       style="opacity:1;fill:#007cc2" />
    <path
       d="M 383.53,447 C 388.25,448.7 391.59,452.51 395.43,455.54 C 442.05,493.5 493.46,525.58 548.09,550.7 C 548.56,550.93 549.05,551.18 549.55,551.43 C 548.59,553.14 548.37,555.09 548.43,557.03 C 548.59,573.69 548.42,590.35 548.51,607.01 C 549.15,614.96 549.92,623.15 553.34,630.47 C 555.15,634.53 558.18,637.85 561.02,641.22 C 562.6,641.69 564.19,642.17 565.8,642.66 C 565.27,642.86 564.75,643.07 564.24,643.29 C 572.51,646.04 582.14,647.47 589.99,642.7 C 597.78,639.24 602.77,631.69 604.99,623.68 C 608.25,615.19 607.47,605.98 607.58,597.08 C 607.6,589.68 607.48,582.29 607.69,574.9 C 616.54,577.31 625.15,580.54 633.97,583.08 C 678.87,596.52 725.4,604.88 772.3,606.13 C 772.43,610.76 772.37,615.4 772.16,620.03 C 772.17,625.75 770.69,631.3 769.79,636.92 C 765.79,656.26 758.47,675.05 747.35,691.43 C 739.96,701.08 732.99,711.35 723.27,718.87 C 719.13,722.17 715.44,726.02 711.09,729.07 C 708.35,730.93 705.73,732.96 703.19,735.09 C 697.43,738.21 692.01,741.97 685.89,744.38 C 678.77,748.64 670.84,751.26 663.34,754.74 C 649.04,758.91 634.7,763.09 620,765.54 C 614.62,765.94 609.27,766.62 603.94,767.46 C 584.96,768.86 565.88,768.7 546.91,767.27 C 535.9,765.28 524.74,764.17 513.89,761.35 C 506.54,759.87 499.76,756.31 492.29,755.38 C 492.76,755.12 493.24,754.88 493.73,754.65 C 490.09,754.27 486.68,753 483.53,751.19 C 475.78,748.18 468.32,744.52 460.85,740.91 C 457.05,737.98 453.03,735.33 448.79,733.1 C 433.6,721.84 419.77,708.56 408.95,693 C 406.17,688.41 402.84,684.12 401.06,679 C 400.24,677.67 399.61,676.25 399.06,674.81 C 396.02,670.49 394.16,665.41 393.32,660.23 C 393.1,660.75 392.9,661.29 392.7,661.84 C 390.7,654.52 388.52,647.25 386.87,639.83 C 383.78,629.6 383.5,618.79 383.3,608.18 C 383.56,554.46 383.09,500.72 383.53,447 z"
       id="path41"
       style="opacity:1;fill:#007cc2" />
    <path
       d="M 607.69,471.3 C 618.79,471.23 629.89,471.34 641,471.22 C 645.32,470.72 649.66,471.02 653.99,471.3 C 668.67,471.15 683.35,471.11 698.03,471.26 C 702.64,470.96 707.32,470.3 711.91,471.3 C 712.08,476.46 710.1,481.72 705.99,484.98 C 699.49,489.97 690.99,491.23 683.03,491.69 C 656.69,492.73 631.03,483.75 608.07,471.51 L 607.69,471.3 z"
       id="path43"
       style="opacity:1;fill:#007cc2" />
  </g>
  <g
     id="#59b431ff">
    <path
       d="M 320.55,155.69 C 341.45,152.15 362.73,151.82 383.87,152.16 L 383.86,152.34 C 383.85,157.93 382.29,163.39 382.51,168.99 C 382.56,261.01 382.4,353.03 382.6,445.04 C 352.35,419.53 324.47,391.22 299.16,360.82 C 282.84,341.06 267.73,320.19 255.44,297.67 C 244.13,276.23 234.74,252.68 235.5,228.03 C 235.86,211.05 243.17,194.3 255.87,182.93 C 273.52,166.71 297.42,159.66 320.55,155.69 z"
       id="path46"
       style="opacity:1;fill:#59b431" />
    <path
       d="M 548.22,289.96 C 548.42,254.47 548.08,218.97 548.39,183.47 C 563.15,188.2 577.5,194.12 591.75,200.19 C 597.08,202.38 602.12,205.26 607.7,206.84 C 607.7,207.1 607.71,207.61 607.72,207.87 C 607.93,226.71 607.52,245.55 607.92,264.38 C 636.92,264.51 665.92,264.36 694.93,264.46 C 698.06,264.46 701.2,264.37 704.33,264.18 C 705.02,264.63 705.72,265.09 706.43,265.55 C 732.69,284.22 757.3,305.19 780.22,327.83 C 720.5,328.44 660.76,328 601.03,328.35 C 598.98,328.21 596.44,328.77 594.98,326.92 C 581.2,312.74 565.5,300.46 548.53,290.32 L 548.22,289.96 z"
       id="path48"
       style="opacity:1;fill:#59b431" />
    <path
       d="M 691.04,427.52 C 748.69,427.36 806.34,427.37 863.98,427.27 C 867.45,427.35 870.96,426.94 874.41,427.51 C 890.63,448.39 905.98,470.36 916.06,494.95 C 922.46,510.71 926.57,528.06 923.62,545.08 C 921.54,556.77 915.27,567.5 906.41,575.36 C 895.57,585.23 881.98,591.51 868.09,595.83 C 850.6,601.35 832.32,603.82 814.1,605.37 C 800.53,606.12 786.89,607.01 773.32,606.1 C 773.88,587.4 773.44,568.67 773.59,549.96 C 773.52,523.46 773.7,496.96 773.49,470.46 C 752.98,470.55 732.46,470.61 711.95,470.45 C 710.21,454.16 700.22,440.5 691.04,427.52 z"
       id="path50"
       style="opacity:1;fill:#59b431" />
    <path
       d="M 548.37,430.17 C 566.98,445.46 586.44,459.86 607.69,471.3 L 608.07,471.51 C 607.29,505.95 608.1,540.44 607.69,574.9 C 587.95,568 568.43,560.4 549.55,551.43 C 549.05,551.18 548.56,550.93 548.09,550.7 C 548.58,510.53 548.03,470.35 548.37,430.17 z"
       id="path52"
       style="opacity:1;fill:#59b431" />
  </g>
  <g
     id="#65afe0ff">
    <path
       d="M 383.86,152.34 C 389.28,152.74 394.71,152.42 400.13,152.8 C 405.7,153.78 411.35,154.05 416.98,154.52 C 452.52,157.89 487.66,165.06 521.91,175.08 C 530.71,177.46 539.22,180.8 548.01,183.23 C 549,174.16 547.19,164.94 548.94,155.97 C 547.96,165.1 548.74,174.31 548.39,183.47 C 548.08,218.97 548.42,254.47 548.22,289.96 C 529.83,279.55 510.2,270.44 489.04,267.73 C 478.28,266.58 467.2,266 456.62,268.72 C 450.52,270.31 444.5,273.96 441.95,279.97 C 438.69,287.3 440.86,295.55 443.17,302.82 C 449.2,319.13 459.51,333.34 469.81,347.18 C 493.38,377.15 519.27,405.47 548.37,430.17 C 548.03,470.35 548.58,510.53 548.09,550.7 C 493.46,525.58 442.05,493.5 395.43,455.54 C 391.59,452.51 388.25,448.7 383.53,447 C 383.09,500.72 383.56,554.46 383.3,608.18 C 382.96,606.12 382.68,604.06 382.68,601.98 C 382.59,549.67 382.75,497.36 382.6,445.04 C 382.4,353.03 382.56,261.01 382.51,168.99 C 382.29,163.39 383.85,157.93 383.86,152.34 z"
       id="path55"
       style="opacity:1;fill:#65afe0" />
    <path
       d="M 607.72,207.87 C 622.67,214.21 636.86,222.19 651.06,230.03 C 669.35,240.56 687.18,251.87 704.33,264.18 C 701.2,264.37 698.06,264.46 694.93,264.46 C 665.92,264.36 636.92,264.51 607.92,264.38 C 607.52,245.55 607.93,226.71 607.72,207.87 z"
       id="path57"
       style="opacity:1;fill:#65afe0" />
    <path
       d="M 711.95,470.45 C 732.46,470.61 752.98,470.55 773.49,470.46 C 773.7,496.96 773.52,523.46 773.59,549.96 C 773.44,568.67 773.88,587.4 773.32,606.1 C 772.51,610.7 772.67,615.39 772.16,620.03 C 772.37,615.4 772.43,610.76 772.3,606.13 C 725.4,604.88 678.87,596.52 633.97,583.08 C 625.15,580.54 616.54,577.31 607.69,574.9 C 608.1,540.44 607.29,505.95 608.07,471.51 C 631.03,483.75 656.69,492.73 683.03,491.69 C 690.99,491.23 699.49,489.97 705.99,484.98 C 710.1,481.72 712.08,476.46 711.91,471.3 L 711.95,470.45 z"
       id="path59"
       style="opacity:1;fill:#65afe0" />
  </g>
</svg>
